PathFileType	4	(X/Y/Z)	../Python\walking\Walking06\task.trc
DataRate	CameraRate	NumFrames	NumMarkers	Units	OrigDataRate	OrigDataStartFrame	OrigNumFrames
200.000000	200.000000	4	30	mm	200.000000	206	551
Frame#	Time	CLAV			STRN			RASI			RPSI			LPSI			LASI			RTH1			RTH2			RTH3			RTB1			RTB2			RTB3			RD5M			RTOE			LTH1			LTH3			LTB1			LTB2			LTB3			LTOE			LD5M			PE03			T10			PE01			LHEE			PE02			LTH2			C7			RHEE			RBAK			
		X1	Y1	Z1	X2	Y2	Z2	X3	Y3	Z3	X4	Y4	Z4	X5	Y5	Z5	X6	Y6	Z6	X7	Y7	Z7	X8	Y8	Z8	X9	Y9	Z9	X10	Y10	Z10	X11	Y11	Z11	X12	Y12	Z12	X13	Y13	Z13	X14	Y14	Z14	X15	Y15	Z15	X16	Y16	Z16	X17	Y17	Z17	X18	Y18	Z18	X19	Y19	Z19	X20	Y20	Z20	X21	Y21	Z21	X22	Y22	Z22	X23	Y23	Z23	X24	Y24	Z24	X25	Y25	Z25	X26	Y26	Z26	X27	Y27	Z27	X28	Y28	Z28	X29	Y29	Z29	X30	Y30	Z30	

207	1.03	626.0875244140627	1402.898559570313	178.4825439453126	683.9975585937502	1210.882446289063	196.8496246337892	660.2063598632815	993.5838012695317	350.2289428710939	501.5732727050784	1041.336059570313	246.9278106689454	503.2187500000002	1041.560546875	146.6921386718751	684.7586669921877	998.895874023438	71.47483062744143	558.7478637695315	741.4797973632815	383.5549621582032	497.1630859375002	735.9805297851565	375.4246215820314	503.755310058594	687.7716064453127	362.3585510253907	370.8542480468751	373.5056152343751	316.4230041503907	309.7088012695314	361.5328369140626	314.7637329101564	320.1260681152345	312.4367065429689	306.5127868652345	205.5382537841798	27.22433471679689	307.9256896972657	266.8699035644532	28.61361694335939	268.9467163085939	669.9023437500002	693.0540161132815	32.60640335083009	713.8489990234377	628.3938598632815	44.49699020385744	763.4334716796877	339.1681213378907	71.81620788574222	749.987731933594	293.7744750976564	87.67443847656253	808.4111938476567	274.9960021972657	76.4632263183594	1020.866394042969	42.97439575195314	136.9451446533204	979.9091796875005	18.50254058837891	98.8494491577149	496.2894592285159	1029.492309570313	172.5155639648438	455.9079284667971	1231.560424804688	191.5579071044922	508.8851013183596	1089.530517578125	197.8096923828126	814.6010131835942	30.67003250122072	161.6205291748047	497.678405761719	1029.078369140625	223.6236724853517	655.7595214843752	648.6087646484377	50.48984527587893	506.8495788574221	1488.324462890625	165.7146301269532	95.97972106933597	140.2585449218751	225.9215698242189	496.6020202636721	1412.021240234375	348.1448974609376	
208	1.035	633.4898071289065	1403.551391601563	177.7566986083985	691.8911132812502	1211.780395507813	196.3849487304689	668.6831054687502	993.1835937500005	349.225311279297	509.8808593750002	1041.51904296875	246.9249267578126	511.1897583007815	1042.46630859375	146.6355590820313	692.686950683594	1000.650268554688	70.93992614746097	568.4463500976565	740.540710449219	382.4655151367189	506.8692321777346	734.850036621094	374.3443603515626	513.5916137695315	686.6604614257815	361.4029541015626	379.6162414550782	373.6262207031251	316.4873046875001	318.296356201172	362.6800537109376	314.5494384765626	327.9251403808595	313.3491821289064	306.7920532226564	206.7047271728517	28.79113960266115	307.7586364746095	266.8463745117189	28.60012245178224	268.7554626464845	676.585632324219	694.746032714844	31.88883781433107	719.7336425781252	629.6655273437502	44.06442642211915	768.167602539063	339.8131103515626	70.96707916259768	754.537048339844	294.6897583007814	86.07761383056643	812.8540649414067	275.3359375000001	76.03131103515628	1022.470886230469	40.76340866088869	138.1146087646485	980.9326782226567	17.70898628234864	98.78134155273443	504.352966308594	1030.183715820313	172.4343872070313	463.8323059082034	1231.76171875	191.0760803222657	516.9439086914065	1090.054443359375	198.109100341797	815.426147460938	31.40611839294435	161.4727325439454	505.9216613769534	1029.413208007813	223.5446166992189	661.758239746094	650.2207031250002	49.14222335815433	514.0874633789065	1488.648071289063	164.8286437988282	101.5151824951172	145.7849426269532	226.2360687255861	503.7088928222659	1412.553344726563	347.2519836425782	
209	1.04	640.8800048828127	1404.251342773438	177.0426177978516	699.7471313476565	1212.724243164063	195.9392547607423	677.087097167969	992.816040039063	348.1906127929689	518.1083984375002	1041.737426757813	246.9552764892579	519.0798339843752	1043.433349609375	146.6200561523438	700.5184326171877	1002.508056640625	70.40789031982425	578.2940673828127	739.5510864257815	381.3198852539064	516.7310180664065	733.611267089844	373.2152404785157	523.6237792968752	685.439147949219	360.4146728515626	388.7942199707034	373.6481323242189	316.5722961425782	327.3187561035157	363.7413940429689	314.3612365722657	336.1412658691407	314.1920776367189	307.092498779297	208.1421356201173	30.5375213623047	307.5859680175782	266.895233154297	28.65136718750001	268.5182495117189	683.282897949219	696.574401855469	31.15098762512208	725.734802246094	631.1520996093752	43.59818649291994	772.803344726563	340.5747070312501	70.10658264160159	758.881042480469	295.7336425781251	84.47753906250003	817.0659179687505	275.648895263672	75.9570236206055	1023.821533203125	38.99974060058595	139.2619628906251	981.7877807617192	17.24376678466798	98.73560333251959	512.342956542969	1030.921142578125	172.3832702636719	471.7211914062502	1232.03173828125	190.608383178711	524.9143066406252	1090.620971679688	198.4481201171876	816.1206054687505	32.03160476684572	161.3487701416016	514.085388183594	1029.787109375	223.493865966797	667.854187011719	651.9509887695315	47.7277297973633	521.3244628906252	1489.02783203125	163.9522094726563	107.5392684936524	151.4202728271485	226.6724243164064	510.8132019042971	1413.156982421875	346.3682861328126	
210	1.045	648.2561645507815	1404.9931640625	176.3426818847657	707.5604248046877	1213.70556640625	195.5138244628907	685.4060058593752	992.4813842773442	347.1301879882814	526.2463989257815	1041.986328125	247.0156250000001	526.882263183594	1044.45068359375	146.6442565917969	708.249206542969	1004.454406738282	69.87506866455081	588.277526855469	738.5151977539065	380.1213684082032	526.7369384765627	732.2656250000002	372.0367736816407	533.8442382812502	684.1075439453127	359.3940734863282	398.3944396972659	373.563934326172	316.6716308593751	336.7822570800782	364.7057189941407	314.2070617675782	344.7829589843751	314.9570617675782	307.406951904297	209.8888244628907	32.47411346435548	307.4119262695314	267.0606384277345	28.79159355163576	268.2405395507814	690.0435791015627	698.5201416015627	30.38510894775392	731.9107055664065	632.8345947265627	43.10971450805665	777.2963867187505	341.4297180175782	69.25685882568362	762.9683227539065	296.8738708496095	82.97514343261722	820.9984741210942	275.9602966308595	76.21965026855472	1024.924682617188	37.64158630371095	140.3464660644532	982.471313476563	17.04163932800294	98.70580291748053	520.2528076171877	1031.695678710938	172.3597106933594	479.5686340332034	1232.368041992188	190.1533355712891	532.788757324219	1091.222534179688	198.8213653564454	816.6791992187505	32.53907775878908	161.2488098144532	522.1605224609377	1030.194213867188	223.4688262939454	674.1014404296877	653.7833251953127	46.24064254760744	528.5593872070315	1489.460815429688	163.0873260498047	114.0583267211915	157.1544494628907	227.2505645751954	517.9125976562502	1413.827392578125	345.4957885742189	
